<svg width="19" height="19" viewBox="0 0 19 19" fill="none" xmlns="http://www.w3.org/2000/svg">
<path d="M8.85817 0.666626H0.666504V8.85829L9.82484 18.025C9.82484 18.025 10.6998 17.15 10.9998 16.8416L18.0165 9.83329L8.85817 0.666626ZM3.58317 4.83329C2.8915 4.83329 2.33317 4.27496 2.33317 3.58329C2.33317 2.89163 2.8915 2.33329 3.58317 2.33329C4.27484 2.33329 4.83317 2.89163 4.83317 3.58329C4.83317 4.27496 4.27484 4.83329 3.58317 4.83329ZM9.83317 15.2833L6.27484 11.725C5.89984 11.3416 5.6665 10.825 5.6665 10.25C5.6665 9.09996 6.59984 8.16663 7.74984 8.16663C8.32484 8.16663 8.84984 8.39996 9.22484 8.78329L9.83317 9.38329L10.4415 8.77496C10.8165 8.39996 11.3415 8.16663 11.9165 8.16663C13.0665 8.16663 13.9998 9.09996 13.9998 10.25C13.9998 10.825 13.7665 11.35 13.3915 11.725L9.83317 15.2833Z" fill="white" fill-opacity="0.56"/>
</svg>
